<svg xmlns="http://www.w3.org/2000/svg" viewBox="60 40 780 440">
  <!-- connectors -->
  <g fill="none" stroke="#e5e7eb" stroke-width="2" stroke-linecap="round">
    <path d="M110 140 C220 90, 290 90, 400 140" />
    <path d="M400 140 C510 190, 580 190, 690 140" />
    <path d="M110 380 C220 430, 290 430, 400 380" />
    <path d="M400 380 C510 330, 580 330, 690 380" />
    <path d="M260 260 C320 230, 380 230, 440 260" />
    <path d="M440 260 C500 290, 560 290, 620 260" />
  </g>

  <!-- dots -->
  <g fill="#5b82ff" opacity=".9">
    <circle cx="450" cy="60" r="6" />
    <circle cx="780" cy="260" r="6" />
    <circle cx="120" cy="260" r="6" />
    <circle cx="450" cy="460" r="6" />
  </g>

  <!-- nodes -->
  <g>
    <rect x="80"  y="110" width="210" height="80" rx="18" fill="#f3f4f6" stroke="#e5e7eb"/>
    <rect x="345" y="110" width="210" height="80" rx="18" fill="#f3f4f6" stroke="#e5e7eb"/>
    <rect x="610" y="110" width="210" height="80" rx="18" fill="#f3f4f6" stroke="#e5e7eb"/>

    <rect x="220" y="230" width="230" height="80" rx="18" fill="#f3f4f6" stroke="#e5e7eb"/>
    <rect x="470" y="230" width="230" height="80" rx="18" fill="#f3f4f6" stroke="#e5e7eb"/>
  </g>

  <!-- labels -->
  <g font-family="Inter, Arial, sans-serif">
    <text x="105" y="145" font-size="16" font-weight="700" fill="#111827">Работа</text>
    <text x="105" y="165" font-size="12" fill="#6b7280">тип и нагрузка</text>

    <text x="370" y="145" font-size="16" font-weight="700" fill="#111827">Питание</text>
    <text x="370" y="165" font-size="12" fill="#6b7280">под задачу</text>

    <text x="635" y="145" font-size="16" font-weight="700" fill="#111827">Состояние</text>
    <text x="635" y="165" font-size="12" fill="#6b7280">фокус / устойчивость / энергия</text>

    <text x="245" y="265" font-size="16" font-weight="700" fill="#111827">Простая логика</text>
    <text x="245" y="285" font-size="12" fill="#6b7280">без универсальных советов</text>

    <text x="495" y="265" font-size="16" font-weight="700" fill="#111827">Корректировки</text>
    <text x="495" y="285" font-size="12" fill="#6b7280">аккуратно и по делу</text>
  </g>
</svg>
